<svg width="500" height="300" xmlns="http://www.w3.org/2000/svg">
  <g opacity="0.10" stroke="#00B3B3" stroke-width="2" fill="none">
    <g>
      <!-- Robot 1 -->
      <rect x="60" y="40" width="32" height="32" rx="7"/>
      <circle cx="76" cy="35" r="7"/>
      <line x1="76" y1="35" x2="76" y2="40"/>
      <line x1="76" y1="28" x2="76" y2="32"/>
      <line x1="72" y1="32" x2="70" y2="28"/>
      <line x1="80" y1="32" x2="82" y2="28"/>
      <rect x="68" y="50" width="6" height="6" rx="1.5"/>
      <rect x="86" y="50" width="6" height="6" rx="1.5"/>
      <line x1="60" y1="56" x2="45" y2="54"/>
      <line x1="92" y1="56" x2="108" y2="62"/>
      <line x1="65" y1="72" x2="65" y2="88"/>
      <line x1="87" y1="72" x2="90" y2="91"/>
    </g>
    <g>
      <!-- Robot 2 (offset) -->
      <rect x="340" y="60" width="30" height="30" rx="8"/>
      <circle cx="355" cy="55" r="6"/>
      <line x1="355" y1="55" x2="355" y2="60"/>
      <line x1="355" y1="49" x2="355" y2="52"/>
      <rect x="345" y="70" width="5" height="5" rx="1"/>
      <rect x="358" y="70" width="5" height="5" rx="1"/>
      <line x1="340" y1="75" x2="325" y2="80"/>
      <line x1="370" y1="75" x2="385" y2="72"/>
      <line x1="347" y1="90" x2="347" y2="105"/>
      <line x1="363" y1="90" x2="370" y2="108"/>
    </g>
    <g>
      <!-- Robot 3 (lower left, smaller) -->
      <rect x="35" y="210" width="24" height="24" rx="5"/>
      <circle cx="47" cy="205" r="5"/>
      <line x1="47" y1="205" x2="47" y2="210"/>
      <rect x="39" y="218" width="3" height="3" rx="1"/>
      <rect x="51" y="218" width="3" height="3" rx="1"/>
      <line x1="35" y1="225" x2="27" y2="230"/>
      <line x1="59" y1="225" x2="68" y2="229"/>
      <line x1="44" y1="234" x2="41" y2="250"/>
      <line x1="55" y1="234" x2="59" y2="251"/>
    </g>
    <g>
      <!-- Robot 4 (center) -->
      <rect x="230" y="150" width="36" height="36" rx="8"/>
      <circle cx="248" cy="145" r="8"/>
      <line x1="248" y1="145" x2="248" y2="150"/>
      <rect x="238" y="165" width="7" height="7" rx="2"/>
      <rect x="255" y="165" width="7" height="7" rx="2"/>
      <line x1="230" y1="168" x2="215" y2="170"/>
      <line x1="266" y1="168" x2="285" y2="177"/>
      <line x1="240" y1="186" x2="236" y2="210"/>
      <line x1="260" y1="186" x2="267" y2="209"/>
    </g>
    <g>
      <!-- Robot 5 (lower right) -->
      <rect x="400" y="210" width="24" height="24" rx="5"/>
      <circle cx="412" cy="205" r="5"/>
      <line x1="412" y1="205" x2="412" y2="210"/>
      <rect x="404" y="218" width="3" height="3" rx="1"/>
      <rect x="415" y="218" width="3" height="3" rx="1"/>
      <line x1="400" y1="225" x2="395" y2="238"/>
      <line x1="424" y1="225" x2="430" y2="238"/>
      <line x1="406" y1="234" x2="410" y2="252"/>
      <line x1="419" y1="234" x2="418" y2="252"/>
    </g>
    <!-- Add more robots here if you want denser or even more random -->
  </g>
</svg>
